<?xml version="1.0" encoding="UTF-8"?>
<!DOCTYPE svg PUBLIC "-//W3C//DTD SVG 1.1//EN" "http://www.w3.org/Graphics/SVG/1.1/DTD/svg11.dtd">
<!-- Creator: CorelDRAW -->
<svg xmlns="http://www.w3.org/2000/svg" xml:space="preserve" width="297mm" height="210mm" style="shape-rendering:geometricPrecision; text-rendering:geometricPrecision; image-rendering:optimizeQuality; fill-rule:evenodd; clip-rule:evenodd"
viewBox="0 0 297 210"
 xmlns:xlink="http://www.w3.org/1999/xlink"
 version="1.1">
 <defs>
  <style type="text/css">
   <![CDATA[
    .fil1 {fill:white;fill-rule:nonzero}
    .fil0 {fill:url(#id0);fill-opacity:0.901961}
   ]]>
  </style>
  <linearGradient id="id0" gradientUnits="userSpaceOnUse" x1="156.235" y1="89.5342" x2="156.235" y2="129.534">
   <stop offset="0" style="stop-color:red"/>
   <stop offset="0.509804" style="stop-color:#B00000"/>
   <stop offset="1" style="stop-color:#610000"/>
  </linearGradient>
 </defs>
 <g id="图层_x0020_1">
  <metadata id="CorelCorpID_0Corel-Layer"/>
  <path class="fil0" d="M98.7228 89.5342l89.9999 0c2.7501,0 5.0001,2.25 5.0001,5l0 30c0,2.75 -2.25,5 -5.0001,5l-89.9999 0c-2.7501,0 -5,-2.25 -5,-5l0 -30c0,-2.75 2.2499,-5 5,-5z"/>
  <path class="fil1" d="M133.986 109.742c0,-1.2459 0.1849,-2.2898 0.5576,-3.1346 0.2787,-0.6201 0.657,-1.1805 1.1378,-1.6755 0.4807,-0.4921 1.0069,-0.859 1.5787,-1.098 0.7623,-0.3242 1.6384,-0.4835 2.634,-0.4835 1.8006,0 3.2399,0.5575 4.3209,1.6754 1.0809,1.1151 1.6213,2.6682 1.6213,4.6565 0,1.9741 -0.5376,3.5159 -1.61,4.6309 -1.0723,1.1122 -2.506,1.6698 -4.298,1.6698 -1.8177,0 -3.2627,-0.5547 -4.3351,-1.6613 -1.0724,-1.1093 -1.6072,-2.6368 -1.6072,-4.5797zm2.5402 -0.0824c0,1.3824 0.3214,2.432 0.9586,3.146 0.64,0.714 1.4507,1.0696 2.4349,1.0696 0.9814,0 1.7892,-0.3528 2.4207,-1.0639 0.6287,-0.7083 0.9444,-1.7693 0.9444,-3.1859 0,-1.3995 -0.3072,-2.4434 -0.9188,-3.1347 -0.6144,-0.6883 -1.4308,-1.0325 -2.4463,-1.0325 -1.0183,0 -1.8375,0.3499 -2.4605,1.0468 -0.6201,0.6969 -0.933,1.7465 -0.933,3.1546zm12.2156 6.1157l0 -12.2173 2.4662 0 0 5.4246 4.9836 -5.4246 3.3167 0 -4.5996 4.7589 4.8499 7.4584 -3.1915 0 -3.3566 -5.7346 -2.0025 2.0424 0 3.6922 -2.4662 0z"/>
 </g>
</svg>
