<?xml version="1.0" encoding="UTF-8"?>
<svg xmlns="http://www.w3.org/2000/svg" xml:space="preserve" width="297mm" height="210mm" viewBox="0 0 297 210" xmlns:xlink="http://www.w3.org/1999/xlink" version="1.1">
 <defs>
  <style type="text/css">
   <![CDATA[
    .fil1 {fill:white;fill-rule:nonzero}
    .fil0 {fill:url(#id0);fill-opacity:0.901961}
   ]]>
  </style>
  <linearGradient id="id0" gradientUnits="userSpaceOnUse" x1="159.12" y1="84.8288" x2="159.12" y2="104.829">
   <stop offset="0" style="stop-color:#00AAFF"/>
   <stop offset="0.419608" style="stop-color:#0072B7"/>
   <stop offset="1" style="stop-color:#00396E"/>
  </linearGradient>
 </defs>
 <g id="_x0020_1">
  <metadata id="CorelCorpID_0Corel-Layer"/>
  <path class="fil0" d="M123.158 84.8288l52.9439 0c1.1,0 2,0.9 2,2l0 16c0,1.1 -0.9,2 -2,2l-52.9439 0c-1.1001,0 -2.0001,-0.9 -2.0001,-2l0 -16c0,-1.1 0.9,-2 2.0001,-2z"/>
  <path class="fil1" d="M143.586 94.9092c0,-1.0061 0.2695,-1.7935 0.81,-2.3622 0.5405,-0.5686 1.2376,-0.8537 2.0927,-0.8537 0.5588,0 1.064,0.1341 1.5127,0.4008 0.4487,0.2681 0.7916,0.6406 1.0273,1.119 0.2357,0.4769 0.3528,1.0202 0.3528,1.6256 0,0.6152 -0.1228,1.1656 -0.3711,1.6496 -0.2484,0.4854 -0.5998,0.8523 -1.0541,1.1021 -0.4558,0.2497 -0.9455,0.3739 -1.4718,0.3739 -0.5715,0 -1.081,-0.1369 -1.5297,-0.4134 -0.4501,-0.2752 -0.7902,-0.652 -1.0216,-1.1289 -0.2315,-0.4756 -0.3472,-0.9808 -0.3472,-1.5128zm0.8269 0.0127c0,0.731 0.1962,1.3053 0.5885,1.7258 0.3937,0.4206 0.8862,0.6308 1.4788,0.6308 0.604,0 1.1007,-0.2117 1.4902,-0.6364 0.3894,-0.4248 0.5856,-1.0273 0.5856,-1.8076 0,-0.4925 -0.0847,-0.9229 -0.2512,-1.2912 -0.1665,-0.3683 -0.4106,-0.6534 -0.731,-0.8566 -0.3217,-0.2018 -0.6815,-0.3034 -1.0809,-0.3034 -0.5687,0 -1.0569,0.1948 -1.4661,0.5857 -0.4092,0.3894 -0.6139,1.0414 -0.6139,1.9529zm6.4396 2.9394l0 -6.0607 0.8029 0 0 3.0056 3.0099 -3.0056 1.0866 0 -2.5429 2.4553 2.6544 3.6054 -1.0584 0 -2.1576 -3.0678 -0.992 0.9681 0 2.0997 -0.8029 0z"/>
 </g>
</svg>
